<svg width="255" height="22" viewBox="0 0 255 22" fill="none" xmlns="http://www.w3.org/2000/svg">
<path d="M15.7617 0.246094C16.5742 0.464844 17.1875 0.785156 17.6016 1.20703C18.1875 1.80078 18.4805 2.48438 18.4805 3.25781C18.4805 3.89062 18.25 4.54688 17.7891 5.22656C17.3359 5.89844 16.4961 6.69922 15.2695 7.62891C16.3164 7.72266 17.082 7.89453 17.5664 8.14453C18.0586 8.39453 18.4023 8.71484 18.5977 9.10547C18.793 9.49609 18.8906 10.1484 18.8906 11.0625V15.0938C16.1094 15.4062 13.7383 16.375 11.7773 18C11.0977 17.5312 10.4531 17.1992 9.84375 17.0039C8.85938 16.6758 7.80469 16.5117 6.67969 16.5117C5.29688 16.5117 4.1875 16.793 3.35156 17.3555C2.78906 17.7305 2.50781 18.1055 2.50781 18.4805C2.50781 18.6211 2.58594 18.8281 2.74219 19.1016C2.90625 19.3828 2.98828 19.6055 2.98828 19.7695C2.98828 19.9258 2.92969 20.0625 2.8125 20.1797C2.69531 20.2969 2.56641 20.3555 2.42578 20.3555C2.20703 20.3555 2.00781 20.25 1.82812 20.0391C1.65625 19.8359 1.57031 19.5703 1.57031 19.2422C1.57031 18.9375 1.67578 18.5898 1.88672 18.1992C2.10547 17.8164 2.57031 17.2617 3.28125 16.5352C4 15.8086 4.45703 15.2773 4.65234 14.9414C4.85547 14.6055 4.95703 14.293 4.95703 14.0039C4.95703 13.6602 4.83984 13.3789 4.60547 13.1602C4.37891 12.9336 4.08984 12.8203 3.73828 12.8203C3.41797 12.8203 3.15625 12.9102 2.95312 13.0898C2.75 13.2695 2.61328 13.5664 2.54297 13.9805H2.12109C2.11328 13.832 2.10938 13.7227 2.10938 13.6523C2.10938 12.9961 2.32812 12.457 2.76562 12.0352C3.21094 11.6133 3.80078 11.4023 4.53516 11.4023C4.62109 11.4023 4.75391 11.4062 4.93359 11.4141C4.92578 10.6484 4.8125 10.0938 4.59375 9.75C4.25 9.19531 3.72656 8.91797 3.02344 8.91797C2.58594 8.91797 2.19922 9.03125 1.86328 9.25781C1.68359 9.375 1.50391 9.61719 1.32422 9.98438L0.878906 9.83203C0.957031 9.08203 1.24609 8.48438 1.74609 8.03906C2.25391 7.59375 2.89844 7.37109 3.67969 7.37109C3.96875 7.37109 4.32812 7.39453 4.75781 7.44141C4.78906 6.33984 4.89062 5.53906 5.0625 5.03906C5.23438 4.53125 5.52344 4.07031 5.92969 3.65625C6.33594 3.23438 7.10547 2.65234 8.23828 1.91016C7.16797 2.26172 6.26172 2.4375 5.51953 2.4375C5.04297 2.4375 4.41797 2.34375 3.64453 2.15625C3.19922 2.05469 2.88281 2.00391 2.69531 2.00391C2.34375 2.00391 2.04688 2.125 1.80469 2.36719C1.5625 2.60156 1.40234 3.02344 1.32422 3.63281H0.878906C0.902344 2.92187 1.03125 2.32813 1.26562 1.85156C1.50781 1.36719 1.875 0.980469 2.36719 0.691406C2.85938 0.394531 3.37891 0.246094 3.92578 0.246094C4.33203 0.246094 5.00781 0.363281 5.95312 0.597656C6.89844 0.832031 7.66406 0.949219 8.25 0.949219C8.67969 0.949219 9.09375 0.902344 9.49219 0.808594C9.89844 0.714844 10.4297 0.527344 11.0859 0.246094L11.3203 0.75C9.63281 1.57031 8.50781 2.37109 7.94531 3.15234C7.39062 3.92578 7.11328 4.95703 7.11328 6.24609V11.0625C7.11328 12.1172 6.99609 12.9375 6.76172 13.5234C6.52734 14.1094 6.05469 14.7773 5.34375 15.5273C6.72656 14.9414 7.65625 14.3125 8.13281 13.6406C8.60938 12.9688 8.84766 11.9805 8.84766 10.6758V7.21875C8.84766 5.60938 8.98828 4.47656 9.26953 3.82031C9.55078 3.15625 10.0664 2.58984 10.8164 2.12109C11.5742 1.64453 13.2227 1.01953 15.7617 0.246094ZM13.7344 1.38281C12.8906 1.76563 12.3203 2.08984 12.0234 2.35547C11.7344 2.62109 11.5312 2.9375 11.4141 3.30469C11.3047 3.66406 11.25 4.27734 11.25 5.14453V9.94922C11.25 10.8086 11.1719 11.457 11.0156 11.8945C10.8594 12.3242 10.5586 12.75 10.1133 13.1719C9.66797 13.5859 8.76562 14.1914 7.40625 14.9883C8.14062 14.8789 8.82422 14.8242 9.45703 14.8242C10.5352 14.8242 11.5547 14.9727 12.5156 15.2695V5.50781H13.0312V8.55469C14.1094 7.90625 14.9062 7.24219 15.4219 6.5625C15.9375 5.875 16.1953 5.13281 16.1953 4.33594C16.1953 3.67969 15.9922 3.11719 15.5859 2.64844C15.1875 2.17187 14.5703 1.75 13.7344 1.38281ZM13.0312 10.2422C13.6719 10.4688 14.25 10.582 14.7656 10.582C15.2812 10.582 15.8594 10.4688 16.5 10.2422C16.5 9.70312 16.3789 9.26953 16.1367 8.94141C15.8945 8.61328 15.4375 8.30469 14.7656 8.01562C13.9141 8.57812 13.3359 8.94141 13.0312 9.10547V10.2422ZM16.5 10.7578C15.8438 10.9844 15.2656 11.0977 14.7656 11.0977C14.2266 11.0977 13.6484 10.9844 13.0312 10.7578V12.8438C13.6328 12.625 14.1953 12.5156 14.7188 12.5156C15.2266 12.5156 15.8203 12.625 16.5 12.8438V10.7578ZM16.5 13.3828C15.7812 13.125 15.1719 12.9961 14.6719 12.9961C14.1484 12.9961 13.6016 13.125 13.0312 13.3828V15.4688C13.3672 15.6172 13.6836 15.7852 13.9805 15.9727C14.7773 15.5586 15.6172 15.2344 16.5 15V13.3828ZM25.1758 1.5H26.6641L25.0469 4.03125H24.5781L25.1758 1.5ZM24.2852 5.50781L26.3711 7.23047L25.4453 8.13281V14.5078C25.4453 15.1797 25.5078 15.6172 25.6328 15.8203C25.7578 16.0234 25.8867 16.125 26.0195 16.125C26.1133 16.125 26.1992 16.1055 26.2773 16.0664C26.3867 16.0117 26.6133 15.8555 26.957 15.5977L27.2383 15.9609L24.5781 18C23.9531 17.5547 23.5508 17.1367 23.3711 16.7461C23.1914 16.3477 23.1016 15.6562 23.1016 14.6719V8.13281L22.2227 7.23047L24.2852 5.50781ZM36.3359 5.50781L38.1055 7.62891L36.3359 9.19922L34.8594 7.33594L33.6992 8.39062V15.2227L35.0352 16.1836L36.2422 15.2227L36.5117 15.5977L33.5117 18C32.8711 17.4297 32.332 17.0195 31.8945 16.7695C31.4648 16.5195 30.9922 16.3242 30.4766 16.1836V15.9258C30.8203 15.6836 31.043 15.4414 31.1445 15.1992C31.2539 14.9492 31.3086 14.4766 31.3086 13.7812V9C31.3086 8.39844 31.2383 8 31.0977 7.80469C30.9648 7.60156 30.8164 7.5 30.6523 7.5C30.4727 7.5 30.2266 7.65625 29.9141 7.96875L29.6328 7.62891L32.1055 5.50781C32.7695 6.01562 33.2227 6.45703 33.4648 6.83203C33.6211 7.06641 33.6992 7.39062 33.6992 7.80469L36.3359 5.50781ZM40.0195 6.79688L43.2891 2.75391H43.6289L43.5117 5.98828H45.8672V7.3125H43.5117V15.1992L44.8242 16.1719L45.5742 15.5859L45.8672 15.9375L43.2891 18C42.4062 17.1016 41.4062 16.4922 40.2891 16.1719V15.9375C40.6016 15.7266 40.8086 15.5078 40.9102 15.2812C41.043 14.9922 41.1094 14.5742 41.1094 14.0273V7.3125H40.0195V6.79688ZM52.7266 1.20703L52.8438 1.48828C52.2891 1.84766 51.9102 2.23047 51.707 2.63672C51.5039 3.04297 51.4023 3.6875 51.4023 4.57031V8.39062L55.0234 5.50781C55.7969 6.00781 56.3008 6.49219 56.5352 6.96094C56.7695 7.42188 56.8867 8.21094 56.8867 9.32812V14.6367C56.8867 15.6523 56.7812 16.3945 56.5703 16.8633C56.2344 17.6289 55.6133 18.3477 54.707 19.0195C53.5195 19.9102 52.0078 20.6797 50.1719 21.3281L50.0078 20.8945C51.5 20.2773 52.5391 19.7148 53.125 19.207C53.7109 18.6992 54.0938 18.1602 54.2734 17.5898C54.4062 17.1602 54.4727 16.043 54.4727 14.2383V9.32812C54.4727 8.78125 54.418 8.40234 54.3086 8.19141C54.1445 7.90234 53.8438 7.61719 53.4062 7.33594L51.4023 8.96484V15.4922L52.2344 16.3242L50.1719 18L48.0859 16.3242L49.0117 15.3984V4.73438C49.0117 3.76562 48.9258 3.10156 48.7539 2.74219C48.582 2.38281 48.2422 2.05859 47.7344 1.76953L47.8633 1.48828C48.2773 1.60547 48.6094 1.73828 48.8594 1.88672C49.1094 2.02734 49.4375 2.27734 49.8438 2.63672C50.3203 2.18359 50.7773 1.85156 51.2148 1.64062C51.6523 1.42969 52.1562 1.28516 52.7266 1.20703ZM76.5703 0.480469C77.9297 0.621094 78.9922 0.816406 79.7578 1.06641C80.9141 1.43359 81.9258 1.95703 82.793 2.63672C83.668 3.30859 84.3477 4.10547 84.832 5.02734C85.3242 5.94922 85.5703 6.94922 85.5703 8.02734C85.5703 9.02734 85.3125 10.0117 84.7969 10.9805C84.2812 11.9492 83.3945 13.0391 82.1367 14.25C80.8867 15.4609 79.625 16.3906 78.3516 17.0391C77.0781 17.6797 75.832 18 74.6133 18C73.3086 18 72.0469 17.6758 70.8281 17.0273C69.6094 16.3789 68.668 15.4883 68.0039 14.3555C67.3398 13.2148 67.0078 11.957 67.0078 10.582C67.0078 9.79297 67.0898 9.03516 67.2539 8.30859C67.418 7.57422 67.7031 6.72656 68.1094 5.76562C68.8828 5.38281 69.7891 4.85547 70.8281 4.18359C71.3828 3.81641 72.7852 2.92578 75.0352 1.51172C75.4883 1.23047 76 0.886719 76.5703 0.480469ZM75.6797 2.8125C75.1484 2.78125 74.625 2.75781 74.1094 2.74219V9.66797C74.1094 10.418 74.0586 10.9414 73.957 11.2383C73.8555 11.5352 73.668 11.8438 73.3945 12.1641L71.2266 14.25C71.9609 14.875 72.6523 15.3203 73.3008 15.5859C73.957 15.8438 74.75 16.0039 75.6797 16.0664V2.8125ZM76.1836 5.94141C76.7461 6.42578 77.2773 6.77734 77.7773 6.99609C78.2852 7.20703 78.8359 7.3125 79.4297 7.3125C79.9766 7.3125 80.4805 7.20703 80.9414 6.99609C81.4102 6.77734 81.9023 6.42578 82.418 5.94141C81.9727 5.36328 81.5586 4.93359 81.1758 4.65234C80.4727 4.14453 79.7148 3.74609 78.9023 3.45703C78.0977 3.16797 77.1914 2.96484 76.1836 2.84766V5.94141ZM71.707 4.27734C71.043 4.76953 70.5664 5.18359 70.2773 5.51953C69.8945 5.96484 69.5742 6.50781 69.3164 7.14844C69.0586 7.78906 68.9297 8.49219 68.9297 9.25781C68.9297 10.9141 69.5664 12.457 70.8398 13.8867C71.1992 13.5508 71.4336 13.2188 71.543 12.8906C71.6523 12.5547 71.707 11.9023 71.707 10.9336V4.27734ZM76.1836 10.8281C76.7383 10.2812 77.2539 9.89844 77.7305 9.67969C78.2148 9.46094 78.7734 9.35156 79.4062 9.35156C80.0703 9.35156 80.668 9.46875 81.1992 9.70312C81.7305 9.9375 82.3008 10.3438 82.9102 10.9219C83.1211 10.1484 83.2266 9.47656 83.2266 8.90625C83.2266 8.38281 83.1875 7.92578 83.1094 7.53516C83.0469 7.24609 82.918 6.88672 82.7227 6.45703C82.043 7.00391 81.4531 7.37891 80.9531 7.58203C80.4531 7.77734 79.8984 7.875 79.2891 7.875C78.7344 7.875 78.2266 7.78516 77.7656 7.60547C77.3047 7.41797 76.7773 7.08594 76.1836 6.60938V10.8281ZM76.1836 16.0664C77.168 16.0117 77.9688 15.8516 78.5859 15.5859C79.5234 15.1875 80.3359 14.6406 81.0234 13.9453C81.7109 13.2422 82.2773 12.3945 82.7227 11.4023C81.6445 10.3867 80.543 9.87891 79.418 9.87891C78.7617 9.87891 78.1367 10.0547 77.543 10.4062C77.1055 10.6562 76.6523 11.0781 76.1836 11.6719V16.0664ZM93.8125 1.76953L93.4492 3.72656L91.3047 3.22266V6.04688H93.1211V7.35938H91.3047V15.2227L92.6289 16.2188L93.543 15.4805L93.8125 15.8086L91.0938 18C90.1328 17.125 89.1445 16.5312 88.1289 16.2188L88.0586 15.9375C88.3398 15.7578 88.5352 15.5703 88.6445 15.375C88.832 15.0547 88.9258 14.668 88.9258 14.2148V7.35938H87.8242V6.04688H88.9258V3.22266C90.0977 2.42578 90.9805 1.75391 91.5742 1.20703L93.8125 1.76953ZM120.434 0.480469L120.867 0.785156C120.703 1.54297 120.477 2.14063 120.188 2.57812C119.906 3.01562 119.488 3.36328 118.934 3.62109C118.387 3.87109 117.754 3.99609 117.035 3.99609C116.652 3.99609 116.188 3.97266 115.641 3.92578V15.7734C116.828 15.4141 117.773 14.9531 118.477 14.3906C119.18 13.8203 119.832 13.0039 120.434 11.9414L120.867 12.1523C120.523 13.1992 120.125 14.0391 119.672 14.6719C118.945 15.6953 118.008 16.5078 116.859 17.1094C115.711 17.7031 114.383 18 112.875 18C111.406 18 110.031 17.7188 108.75 17.1562C108.008 16.8281 107.328 16.3672 106.711 15.7734C106.094 15.1797 105.586 14.4609 105.188 13.6172C104.797 12.7734 104.602 11.8164 104.602 10.7461C104.602 9.66797 104.816 8.63672 105.246 7.65234C105.676 6.66797 106.309 5.72656 107.145 4.82812C107.676 4.26562 108.426 3.64453 109.395 2.96484L107.918 2.88281C107.371 2.85156 106.766 2.96875 106.102 3.23438C105.438 3.49219 104.918 3.83984 104.543 4.27734C104.176 4.71484 103.855 5.36719 103.582 6.23438L103.148 5.97656C103.414 4.86719 103.758 4.00391 104.18 3.38672C104.742 2.56641 105.484 1.93359 106.406 1.48828C107.328 1.03516 108.379 0.808594 109.559 0.808594C110.379 0.808594 111.828 0.980469 113.906 1.32422C115.984 1.66797 117.414 1.83984 118.195 1.83984C118.719 1.83984 119.117 1.76172 119.391 1.60547C119.672 1.44141 120.02 1.06641 120.434 0.480469ZM110.707 3.08203L110.086 3.02344C109.039 3.92188 108.27 4.82031 107.777 5.71875C107.113 6.92969 106.781 8.17578 106.781 9.45703C106.781 11.6445 107.68 13.4297 109.477 14.8125C110.047 14.3359 110.395 13.9492 110.52 13.6523C110.645 13.3555 110.707 12.75 110.707 11.8359V3.08203ZM115.102 3.82031C114.359 3.71875 113.703 3.60938 113.133 3.49219V10.5C113.133 11.3203 113.098 11.8438 113.027 12.0703C112.965 12.2891 112.812 12.5391 112.57 12.8203C112.133 13.3047 111.258 14.0703 109.945 15.1172C110.602 15.4375 111.133 15.6523 111.539 15.7617C112.242 15.9492 112.918 16.043 113.566 16.043C113.91 16.043 114.422 16 115.102 15.9141V3.82031ZM127.797 1.20703L127.914 1.48828C127.359 1.84766 126.98 2.23047 126.777 2.63672C126.574 3.04297 126.473 3.6875 126.473 4.57031V8.39062L130.094 5.50781C130.867 6.00781 131.371 6.49219 131.605 6.96094C131.84 7.42188 131.957 8.21094 131.957 9.32812V14.6367C131.957 15.6523 131.852 16.3945 131.641 16.8633C131.305 17.6289 130.684 18.3477 129.777 19.0195C128.59 19.9102 127.078 20.6797 125.242 21.3281L125.078 20.8945C126.57 20.2773 127.609 19.7148 128.195 19.207C128.781 18.6992 129.164 18.1602 129.344 17.5898C129.477 17.1602 129.543 16.043 129.543 14.2383V9.32812C129.543 8.78125 129.488 8.40234 129.379 8.19141C129.215 7.90234 128.914 7.61719 128.477 7.33594L126.473 8.96484V15.4922L127.305 16.3242L125.242 18L123.156 16.3242L124.082 15.3984V4.73438C124.082 3.76562 123.996 3.10156 123.824 2.74219C123.652 2.38281 123.312 2.05859 122.805 1.76953L122.934 1.48828C123.348 1.60547 123.68 1.73828 123.93 1.88672C124.18 2.02734 124.508 2.27734 124.914 2.63672C125.391 2.18359 125.848 1.85156 126.285 1.64062C126.723 1.42969 127.227 1.28516 127.797 1.20703ZM140 5.50781L143.305 9.36328L138.055 13.043V15.1758L140.773 16.2539L142.613 15L142.871 15.3516L139.074 18C138.301 17.5859 137.664 17.2891 137.164 17.1094C136.664 16.9297 135.953 16.7422 135.031 16.5469V16.2539C135.297 16.0977 135.473 15.9062 135.559 15.6797C135.652 15.4453 135.699 14.9453 135.699 14.1797V7.47656C136.434 7.21094 137.043 6.96875 137.527 6.75C137.879 6.58594 138.703 6.17188 140 5.50781ZM138.219 6.85547L138.055 6.9375V12.2461L141.137 10.0898L138.219 6.85547ZM167.512 0.246094C168.324 0.464844 168.938 0.785156 169.352 1.20703C169.938 1.80078 170.23 2.48438 170.23 3.25781C170.23 3.89062 170 4.54688 169.539 5.22656C169.086 5.89844 168.246 6.69922 167.02 7.62891C168.066 7.72266 168.832 7.89453 169.316 8.14453C169.809 8.39453 170.152 8.71484 170.348 9.10547C170.543 9.49609 170.641 10.1484 170.641 11.0625V15.0938C167.859 15.4062 165.488 16.375 163.527 18C162.848 17.5312 162.203 17.1992 161.594 17.0039C160.609 16.6758 159.555 16.5117 158.43 16.5117C157.047 16.5117 155.938 16.793 155.102 17.3555C154.539 17.7305 154.258 18.1055 154.258 18.4805C154.258 18.6211 154.336 18.8281 154.492 19.1016C154.656 19.3828 154.738 19.6055 154.738 19.7695C154.738 19.9258 154.68 20.0625 154.562 20.1797C154.445 20.2969 154.316 20.3555 154.176 20.3555C153.957 20.3555 153.758 20.25 153.578 20.0391C153.406 19.8359 153.32 19.5703 153.32 19.2422C153.32 18.9375 153.426 18.5898 153.637 18.1992C153.855 17.8164 154.32 17.2617 155.031 16.5352C155.75 15.8086 156.207 15.2773 156.402 14.9414C156.605 14.6055 156.707 14.293 156.707 14.0039C156.707 13.6602 156.59 13.3789 156.355 13.1602C156.129 12.9336 155.84 12.8203 155.488 12.8203C155.168 12.8203 154.906 12.9102 154.703 13.0898C154.5 13.2695 154.363 13.5664 154.293 13.9805H153.871C153.863 13.832 153.859 13.7227 153.859 13.6523C153.859 12.9961 154.078 12.457 154.516 12.0352C154.961 11.6133 155.551 11.4023 156.285 11.4023C156.371 11.4023 156.504 11.4062 156.684 11.4141C156.676 10.6484 156.562 10.0938 156.344 9.75C156 9.19531 155.477 8.91797 154.773 8.91797C154.336 8.91797 153.949 9.03125 153.613 9.25781C153.434 9.375 153.254 9.61719 153.074 9.98438L152.629 9.83203C152.707 9.08203 152.996 8.48438 153.496 8.03906C154.004 7.59375 154.648 7.37109 155.43 7.37109C155.719 7.37109 156.078 7.39453 156.508 7.44141C156.539 6.33984 156.641 5.53906 156.812 5.03906C156.984 4.53125 157.273 4.07031 157.68 3.65625C158.086 3.23438 158.855 2.65234 159.988 1.91016C158.918 2.26172 158.012 2.4375 157.27 2.4375C156.793 2.4375 156.168 2.34375 155.395 2.15625C154.949 2.05469 154.633 2.00391 154.445 2.00391C154.094 2.00391 153.797 2.125 153.555 2.36719C153.312 2.60156 153.152 3.02344 153.074 3.63281H152.629C152.652 2.92187 152.781 2.32813 153.016 1.85156C153.258 1.36719 153.625 0.980469 154.117 0.691406C154.609 0.394531 155.129 0.246094 155.676 0.246094C156.082 0.246094 156.758 0.363281 157.703 0.597656C158.648 0.832031 159.414 0.949219 160 0.949219C160.43 0.949219 160.844 0.902344 161.242 0.808594C161.648 0.714844 162.18 0.527344 162.836 0.246094L163.07 0.75C161.383 1.57031 160.258 2.37109 159.695 3.15234C159.141 3.92578 158.863 4.95703 158.863 6.24609V11.0625C158.863 12.1172 158.746 12.9375 158.512 13.5234C158.277 14.1094 157.805 14.7773 157.094 15.5273C158.477 14.9414 159.406 14.3125 159.883 13.6406C160.359 12.9688 160.598 11.9805 160.598 10.6758V7.21875C160.598 5.60938 160.738 4.47656 161.02 3.82031C161.301 3.15625 161.816 2.58984 162.566 2.12109C163.324 1.64453 164.973 1.01953 167.512 0.246094ZM165.484 1.38281C164.641 1.76563 164.07 2.08984 163.773 2.35547C163.484 2.62109 163.281 2.9375 163.164 3.30469C163.055 3.66406 163 4.27734 163 5.14453V9.94922C163 10.8086 162.922 11.457 162.766 11.8945C162.609 12.3242 162.309 12.75 161.863 13.1719C161.418 13.5859 160.516 14.1914 159.156 14.9883C159.891 14.8789 160.574 14.8242 161.207 14.8242C162.285 14.8242 163.305 14.9727 164.266 15.2695V5.50781H164.781V8.55469C165.859 7.90625 166.656 7.24219 167.172 6.5625C167.688 5.875 167.945 5.13281 167.945 4.33594C167.945 3.67969 167.742 3.11719 167.336 2.64844C166.938 2.17187 166.32 1.75 165.484 1.38281ZM164.781 10.2422C165.422 10.4688 166 10.582 166.516 10.582C167.031 10.582 167.609 10.4688 168.25 10.2422C168.25 9.70312 168.129 9.26953 167.887 8.94141C167.645 8.61328 167.188 8.30469 166.516 8.01562C165.664 8.57812 165.086 8.94141 164.781 9.10547V10.2422ZM168.25 10.7578C167.594 10.9844 167.016 11.0977 166.516 11.0977C165.977 11.0977 165.398 10.9844 164.781 10.7578V12.8438C165.383 12.625 165.945 12.5156 166.469 12.5156C166.977 12.5156 167.57 12.625 168.25 12.8438V10.7578ZM168.25 13.3828C167.531 13.125 166.922 12.9961 166.422 12.9961C165.898 12.9961 165.352 13.125 164.781 13.3828V15.4688C165.117 15.6172 165.434 15.7852 165.73 15.9727C166.527 15.5586 167.367 15.2344 168.25 15V13.3828ZM182.305 7.21875V15.9844C181.133 16.4609 180.285 16.8516 179.762 17.1562C179.363 17.3828 178.98 17.6641 178.613 18C177.48 17.3125 176.543 16.8359 175.801 16.5703C175.238 16.3672 174.602 16.25 173.891 16.2188L173.773 15.9844C174.07 15.7344 174.258 15.5078 174.336 15.3047C174.445 15.0391 174.5 14.5898 174.5 13.957V7.52344C175.93 7.04688 177.152 6.375 178.168 5.50781C179.277 6.24219 180.656 6.8125 182.305 7.21875ZM176.867 14.8477L179.926 16.1016V8.64844C178.965 8.20312 178.285 7.91016 177.887 7.76953C177.605 7.66797 177.266 7.58203 176.867 7.51172V14.8477ZM185.391 7.55859L187.852 5.50781C188.523 5.96094 188.957 6.35547 189.152 6.69141C189.355 7.02734 189.457 7.48828 189.457 8.07422V8.33203L193.008 5.50781C194.219 6.78125 194.824 8.14453 194.824 9.59766C194.824 10.3789 194.625 11.1602 194.227 11.9414C193.828 12.7148 193.203 13.4531 192.352 14.1562C191.5 14.8516 190.125 15.7656 188.227 16.8984C187.398 17.3984 186.902 17.7148 186.738 17.8477C186.387 18.1211 186.137 18.3867 185.988 18.6445C185.879 18.832 185.824 19.043 185.824 19.2773C185.824 19.6758 186.02 20.043 186.41 20.3789C186.809 20.7227 187.332 20.8945 187.98 20.8945C188.449 20.8945 188.836 20.8125 189.141 20.6484C189.289 20.5703 189.434 20.4023 189.574 20.1445C189.715 19.8945 189.836 19.7305 189.938 19.6523C190.039 19.5742 190.16 19.5352 190.301 19.5352C190.457 19.5352 190.582 19.5781 190.676 19.6641C190.77 19.75 190.816 19.8633 190.816 20.0039C190.816 20.2539 190.633 20.5 190.266 20.7422C189.703 21.1328 188.992 21.3281 188.133 21.3281C187.234 21.3281 186.543 21.1133 186.059 20.6836C185.574 20.2617 185.332 19.7578 185.332 19.1719C185.332 18.5938 185.602 18.0312 186.141 17.4844C186.398 17.2188 186.559 17.0312 186.621 16.9219C186.793 16.625 186.91 16.3516 186.973 16.1016C187.035 15.8438 187.066 15.4844 187.066 15.0234V9.42188C187.066 8.64062 186.977 8.10938 186.797 7.82812C186.656 7.60938 186.504 7.5 186.34 7.5C186.207 7.5 186.035 7.60156 185.824 7.80469C185.793 7.83594 185.742 7.88281 185.672 7.94531L185.391 7.55859ZM189.457 8.87109V15.5273C190.559 14.7305 191.34 13.9023 191.801 13.043C192.27 12.1758 192.504 11.3516 192.504 10.5703C192.504 9.51562 192.074 8.48438 191.215 7.47656L189.457 8.87109ZM203.301 1.94531L203.582 2.27344C202.418 3.0625 201.551 3.90625 200.98 4.80469C200.246 5.96094 199.879 7.21875 199.879 8.57812C199.879 10.2266 200.422 11.75 201.508 13.1484C201.977 12.7656 202.258 12.4453 202.352 12.1875C202.445 11.9219 202.492 11.2031 202.492 10.0312V4.78125L207.508 0.597656C208.68 1.05859 209.602 1.35938 210.273 1.5C210.945 1.63281 211.734 1.69922 212.641 1.69922H212.91L213.098 2.12109L211.164 3.97266C209.859 3.83203 208.387 3.35547 206.746 2.54297L206.875 15.9258L207.32 15.9375C208.445 15.9375 209.469 15.7461 210.391 15.3633C211.32 14.9805 212.281 14.3594 213.273 13.5L213.625 13.8398C212.898 14.8398 212.184 15.6172 211.48 16.1719C210.785 16.7266 209.945 17.1719 208.961 17.5078C207.977 17.8359 207 18 206.031 18C204.594 18 203.238 17.6523 201.965 16.957C200.699 16.2617 199.707 15.2656 198.988 13.9688C198.27 12.6719 197.91 11.3359 197.91 9.96094C197.91 8.26562 198.418 6.69531 199.434 5.25C200.23 4.11719 201.52 3.01562 203.301 1.94531ZM206.219 2.47266L204.848 3.65625V9C204.848 9.66406 204.812 10.1055 204.742 10.3242C204.664 10.6133 204.484 10.9219 204.203 11.25C203.633 11.9141 202.836 12.6719 201.812 13.5234C202.438 14.2188 203.105 14.7539 203.816 15.1289C204.535 15.4961 205.375 15.7422 206.336 15.8672L206.219 2.47266ZM220.484 1.20703L220.602 1.48828C220.047 1.84766 219.668 2.23047 219.465 2.63672C219.262 3.04297 219.16 3.6875 219.16 4.57031V8.39062L222.781 5.50781C223.555 6.00781 224.059 6.49219 224.293 6.96094C224.527 7.42188 224.645 8.21094 224.645 9.32812V14.6367C224.645 15.6523 224.539 16.3945 224.328 16.8633C223.992 17.6289 223.371 18.3477 222.465 19.0195C221.277 19.9102 219.766 20.6797 217.93 21.3281L217.766 20.8945C219.258 20.2773 220.297 19.7148 220.883 19.207C221.469 18.6992 221.852 18.1602 222.031 17.5898C222.164 17.1602 222.23 16.043 222.23 14.2383V9.32812C222.23 8.78125 222.176 8.40234 222.066 8.19141C221.902 7.90234 221.602 7.61719 221.164 7.33594L219.16 8.96484V15.4922L219.992 16.3242L217.93 18L215.844 16.3242L216.77 15.3984V4.73438C216.77 3.76562 216.684 3.10156 216.512 2.74219C216.34 2.38281 216 2.05859 215.492 1.76953L215.621 1.48828C216.035 1.60547 216.367 1.73828 216.617 1.88672C216.867 2.02734 217.195 2.27734 217.602 2.63672C218.078 2.18359 218.535 1.85156 218.973 1.64062C219.41 1.42969 219.914 1.28516 220.484 1.20703ZM230.707 1.5H232.195L230.578 4.03125H230.109L230.707 1.5ZM229.816 5.50781L231.902 7.23047L230.977 8.13281V14.5078C230.977 15.1797 231.039 15.6172 231.164 15.8203C231.289 16.0234 231.418 16.125 231.551 16.125C231.645 16.125 231.73 16.1055 231.809 16.0664C231.918 16.0117 232.145 15.8555 232.488 15.5977L232.77 15.9609L230.109 18C229.484 17.5547 229.082 17.1367 228.902 16.7461C228.723 16.3477 228.633 15.6562 228.633 14.6719V8.13281L227.754 7.23047L229.816 5.50781ZM239.148 5.50781L242.195 7.24219L240.953 9.08203L238.656 7.75781V15.2227L240.953 16.2656L242.195 15.3867L242.312 15.8789L239.406 18C238.656 17.5781 238.016 17.2695 237.484 17.0742C236.953 16.8711 236.301 16.6953 235.527 16.5469V16.2656C235.801 16.0781 235.98 15.875 236.066 15.6562C236.191 15.3516 236.254 14.875 236.254 14.2266V7.55859C237.23 7.11328 238.195 6.42969 239.148 5.50781ZM249.43 1.20703V1.51172C248.836 1.90234 248.438 2.31641 248.234 2.75391C248.031 3.18359 247.93 3.88281 247.93 4.85156V8.89453L251.422 5.50781L253.801 8.13281L251.082 10.5117C251.699 10.9492 252.16 11.4258 252.465 11.9414C252.777 12.4492 253.02 13.1992 253.191 14.1914C253.363 15.1758 253.5 15.7422 253.602 15.8906C253.703 16.0391 253.797 16.1133 253.883 16.1133C253.977 16.1133 254.234 15.9531 254.656 15.6328L254.879 16.0078L252.148 18C251.828 17.6719 251.59 17.3242 251.434 16.957C251.277 16.5898 251.16 16.0547 251.082 15.3516L247.766 18C247.289 17.5469 246.828 17.1914 246.383 16.9336C245.945 16.6758 245.398 16.4414 244.742 16.2305V16.0078C245.102 15.7656 245.332 15.5156 245.434 15.2578C245.535 14.9922 245.586 14.332 245.586 13.2773V4.75781C245.586 4.08594 245.555 3.61719 245.492 3.35156C245.406 2.96094 245.277 2.66016 245.105 2.44922C244.941 2.23047 244.672 2.03125 244.297 1.85156L244.473 1.51172C244.941 1.68359 245.293 1.84375 245.527 1.99219C245.77 2.13281 246.066 2.36719 246.418 2.69531C246.926 2.21094 247.406 1.85938 247.859 1.64062C248.32 1.41406 248.844 1.26953 249.43 1.20703ZM250.051 7.44141L247.93 9.49219V12.6211L251.785 9.32812L250.051 7.44141ZM247.93 13.2305V15.2578L249.312 16.2188L251.023 14.8125C250.82 13.5 250.25 12.5664 249.312 12.0117L247.93 13.2305Z" fill="#CEC40D"/>
</svg>
