<svg width="11" height="11" viewBox="0 0 11 11" fill="none" xmlns="http://www.w3.org/2000/svg">
<path fill-rule="evenodd" clip-rule="evenodd" d="M1.06602 0.306839C0.657028 0.715958 0.657028 1.37929 1.06602 1.78841L4.39848 5.12193L1.06606 8.45543C0.657059 8.86455 0.657059 9.52788 1.06606 9.937C1.47502 10.3461 2.13814 10.3461 2.54713 9.937L5.87956 6.6035L9.21199 9.93697C9.62099 10.3461 10.2841 10.3461 10.6931 9.93697C11.1021 9.52785 11.1021 8.86452 10.6931 8.4554L7.36067 5.1219L10.6931 1.78841C11.1021 1.37929 11.1021 0.715988 10.6931 0.30687C10.2841 -0.102249 9.62102 -0.102249 9.21202 0.30687L5.87959 3.64037L2.5471 0.306839C2.13814 -0.10228 1.47502 -0.10228 1.06602 0.306839Z" fill="white"/>
</svg>
